<svg width="40" height="40" viewBox="0 0 40 40" fill="none" xmlns="http://www.w3.org/2000/svg">
<circle cx="20" cy="20" r="20" fill="#767DFF" fill-opacity="0.2"/>
<path fill-rule="evenodd" clip-rule="evenodd" d="M21.8339 12.8H18.1661C17.9073 12.7999 17.6686 12.9357 17.5419 13.1552L11.8626 23.0104C11.741 23.2216 11.741 23.4792 11.8626 23.6904L13.6792 26.844C13.8057 27.0638 14.0445 27.2 14.3034 27.2H25.6966C25.9552 27.1997 26.1936 27.0636 26.3199 26.844L28.1374 23.6904C28.259 23.4792 28.259 23.2216 28.1374 23.0104L22.4581 13.1552C22.3314 12.9357 22.0927 12.7999 21.8339 12.8ZM16.1735 23.3504L20 16.7208L23.8265 23.3504H16.1735Z" fill="#767DFF"/>
</svg>
