<svg width="22" height="25" viewBox="0 0 22 25" fill="none" xmlns="http://www.w3.org/2000/svg">
<path fill-rule="evenodd" clip-rule="evenodd" d="M15.4988 0.0782776C15.7134 1.53602 15.1201 2.96413 14.3374 3.97453C13.4999 5.05831 12.0565 5.89655 10.658 5.8528C10.4027 4.45715 11.0564 3.01916 11.8517 2.05251C12.7242 0.985662 14.2195 0.167182 15.4988 0.0782776ZM19.7 20.5967C20.421 19.4918 20.6903 18.9344 21.25 17.6869C17.1793 16.1388 16.527 10.3516 20.5557 8.13043C19.3269 6.58943 17.6001 5.69616 15.9701 5.69616C14.7957 5.69616 13.991 6.00265 13.2594 6.28128C12.6498 6.51347 12.091 6.72632 11.4113 6.72632C10.6768 6.72632 10.0264 6.4931 9.34529 6.24891C8.59691 5.98058 7.81153 5.69898 6.83699 5.69898C5.00784 5.69898 3.06086 6.81663 1.82646 8.72736C0.0912851 11.4185 0.38726 16.4775 3.20113 20.7872C4.20688 22.3297 5.55069 24.0626 7.30831 24.0781C8.03761 24.0853 8.52291 23.8677 9.04808 23.6321C9.64919 23.3625 10.3025 23.0695 11.4337 23.0635C12.5716 23.0567 13.2146 23.3532 13.8078 23.6268C14.3194 23.8628 14.794 24.0817 15.5171 24.0739C17.2761 24.0598 18.6942 22.1392 19.7 20.5967Z" fill="#141629"/>
</svg>
