<svg width="22" height="25" viewBox="0 0 30 32" fill="none" xmlns="http://www.w3.org/2000/svg">
<path d="M2.8125 3.69111V27.5581C2.81265 27.6098 2.82756 27.6604 2.85533 27.7035C2.88311 27.7465 2.92253 27.7801 2.96865 27.8C3.01477 27.8199 3.06553 27.8253 3.11458 27.8154C3.16362 27.8055 3.20876 27.7808 3.24434 27.7445L15.2344 15.6252L3.24434 3.50467C3.20876 3.46832 3.16362 3.44366 3.11458 3.43379C3.06553 3.42391 3.01477 3.42927 2.96865 3.44918C2.92253 3.46909 2.88311 3.50267 2.85533 3.54571C2.82756 3.58875 2.81265 3.63933 2.8125 3.69111Z" fill="black"/>
<path d="M20.2617 10.6453L5.22776 2.06051L5.21838 2.05504C4.9594 1.90929 4.71331 2.27246 4.92541 2.4838L16.7104 14.1634L20.2617 10.6453Z" fill="black"/>
<path d="M4.92659 28.7666C4.71331 28.9779 4.9594 29.3411 5.21956 29.1953L5.22893 29.1899L20.2617 20.6051L16.7104 17.0858L4.92659 28.7666Z" fill="black"/>
<path d="M26.3309 14.1069L22.1326 11.7105L18.1852 15.6252L22.1326 19.538L26.3309 17.1434C27.4729 16.4894 27.4729 14.761 26.3309 14.1069Z" fill="black"/>
</svg>
